<svg width="184" height="46" viewBox="0 0 184 46" fill="none" xmlns="http://www.w3.org/2000/svg">
    <path
        d="M16.96 27.48C16.96 25.4267 16.5467 23.8 15.72 22.6C14.92 21.4 13.64 20.8 11.88 20.8C11.08 20.8 10.32 20.92 9.6 21.16C8.90667 21.4 8.34667 21.6667 7.92 21.96V34C8.26667 34.08 8.70667 34.16 9.24 34.24C9.8 34.2933 10.4667 34.32 11.24 34.32C13.0267 34.32 14.4267 33.72 15.44 32.52C16.4533 31.2933 16.96 29.6133 16.96 27.48ZM21.92 27.56C21.92 29.24 21.6667 30.76 21.16 32.12C20.68 33.4533 19.9733 34.6 19.04 35.56C18.1333 36.52 17.0267 37.2533 15.72 37.76C14.4133 38.2667 12.9333 38.52 11.28 38.52C9.68 38.52 8.14667 38.4 6.68 38.16C5.24 37.92 4.04 37.6533 3.08 37.36V7.76L7.92 6.96V17.8C8.48 17.5067 9.16 17.24 9.96 17C10.7867 16.76 11.6933 16.64 12.68 16.64C14.1467 16.64 15.4533 16.9067 16.6 17.44C17.7733 17.9467 18.7467 18.68 19.52 19.64C20.2933 20.6 20.88 21.76 21.28 23.12C21.7067 24.4533 21.92 25.9333 21.92 27.56ZM34.1881 38.4C32.7481 38.3733 31.5481 38.2133 30.5881 37.92C29.6548 37.6267 28.9081 37.2133 28.3481 36.68C27.7881 36.12 27.3881 35.44 27.1481 34.64C26.9348 33.8133 26.8281 32.88 26.8281 31.84V7.76L31.6681 6.96V30.92C31.6681 31.5067 31.7081 32 31.7881 32.4C31.8948 32.8 32.0681 33.1467 32.3081 33.44C32.5481 33.7067 32.8681 33.92 33.2681 34.08C33.6948 34.2133 34.2281 34.32 34.8681 34.4L34.1881 38.4ZM57.7031 27.52C57.7031 29.1733 57.4631 30.68 56.9831 32.04C56.5031 33.4 55.8231 34.56 54.9431 35.52C54.0631 36.48 52.9965 37.2267 51.7431 37.76C50.5165 38.2933 49.1565 38.56 47.6631 38.56C46.1698 38.56 44.8098 38.2933 43.5831 37.76C42.3565 37.2267 41.3031 36.48 40.4231 35.52C39.5431 34.56 38.8498 33.4 38.3431 32.04C37.8631 30.68 37.6231 29.1733 37.6231 27.52C37.6231 25.8667 37.8631 24.3733 38.3431 23.04C38.8498 21.68 39.5431 20.52 40.4231 19.56C41.3298 18.6 42.3965 17.8667 43.6231 17.36C44.8498 16.8267 46.1965 16.56 47.6631 16.56C49.1298 16.56 50.4765 16.8267 51.7031 17.36C52.9565 17.8667 54.0231 18.6 54.9031 19.56C55.7831 20.52 56.4631 21.68 56.9431 23.04C57.4498 24.3733 57.7031 25.8667 57.7031 27.52ZM52.7431 27.52C52.7431 25.44 52.2898 23.8 51.3831 22.6C50.5031 21.3733 49.2631 20.76 47.6631 20.76C46.0631 20.76 44.8098 21.3733 43.9031 22.6C43.0231 23.8 42.5831 25.44 42.5831 27.52C42.5831 29.6267 43.0231 31.2933 43.9031 32.52C44.8098 33.7467 46.0631 34.36 47.6631 34.36C49.2631 34.36 50.5031 33.7467 51.3831 32.52C52.2898 31.2933 52.7431 29.6267 52.7431 27.52ZM66.4894 27C66.4894 29.0533 66.9294 30.56 67.8094 31.52C68.716 32.4533 69.876 32.92 71.2894 32.92C72.0627 32.92 72.7827 32.8133 73.4494 32.6C74.1427 32.3867 74.7027 32.1333 75.1294 31.84V21C74.7827 20.92 74.356 20.8533 73.8494 20.8C73.3427 20.72 72.7027 20.68 71.9294 20.68C70.1694 20.68 68.8227 21.2667 67.8894 22.44C66.956 23.5867 66.4894 25.1067 66.4894 27ZM79.9694 35.88C79.9694 39.2133 79.116 41.6533 77.4094 43.2C75.7294 44.7467 73.1427 45.52 69.6494 45.52C68.3694 45.52 67.116 45.4133 65.8894 45.2C64.6894 44.9867 63.596 44.7067 62.6094 44.36L63.4894 40.24C64.316 40.5867 65.2494 40.8667 66.2894 41.08C67.356 41.2933 68.5027 41.4 69.7294 41.4C71.676 41.4 73.0627 41 73.8894 40.2C74.716 39.4 75.1294 38.2133 75.1294 36.64V35.84C74.6494 36.08 74.0094 36.32 73.2094 36.56C72.436 36.8 71.5427 36.92 70.5294 36.92C69.196 36.92 67.9694 36.7067 66.8494 36.28C65.756 35.8533 64.8094 35.2267 64.0094 34.4C63.236 33.5733 62.6227 32.5467 62.1694 31.32C61.7427 30.0667 61.5294 28.6267 61.5294 27C61.5294 25.48 61.756 24.08 62.2094 22.8C62.6894 21.52 63.3694 20.4267 64.2494 19.52C65.156 18.6133 66.2494 17.9067 67.5294 17.4C68.8094 16.8933 70.2627 16.64 71.8894 16.64C73.4627 16.64 74.956 16.76 76.3694 17C77.7827 17.24 78.9827 17.4933 79.9694 17.76V35.88ZM99.2628 27C99.2628 29.0533 99.7028 30.56 100.583 31.52C101.489 32.4533 102.649 32.92 104.063 32.92C104.836 32.92 105.556 32.8133 106.223 32.6C106.916 32.3867 107.476 32.1333 107.903 31.84V21C107.556 20.92 107.129 20.8533 106.623 20.8C106.116 20.72 105.476 20.68 104.703 20.68C102.943 20.68 101.596 21.2667 100.663 22.44C99.7295 23.5867 99.2628 25.1067 99.2628 27ZM112.743 35.88C112.743 39.2133 111.889 41.6533 110.183 43.2C108.503 44.7467 105.916 45.52 102.423 45.52C101.143 45.52 99.8895 45.4133 98.6628 45.2C97.4628 44.9867 96.3695 44.7067 95.3828 44.36L96.2628 40.24C97.0895 40.5867 98.0228 40.8667 99.0628 41.08C100.129 41.2933 101.276 41.4 102.503 41.4C104.449 41.4 105.836 41 106.663 40.2C107.489 39.4 107.903 38.2133 107.903 36.64V35.84C107.423 36.08 106.783 36.32 105.983 36.56C105.209 36.8 104.316 36.92 103.303 36.92C101.969 36.92 100.743 36.7067 99.6228 36.28C98.5295 35.8533 97.5828 35.2267 96.7828 34.4C96.0095 33.5733 95.3961 32.5467 94.9428 31.32C94.5161 30.0667 94.3028 28.6267 94.3028 27C94.3028 25.48 94.5295 24.08 94.9828 22.8C95.4628 21.52 96.1428 20.4267 97.0228 19.52C97.9295 18.6133 99.0228 17.9067 100.303 17.4C101.583 16.8933 103.036 16.64 104.663 16.64C106.236 16.64 107.729 16.76 109.143 17C110.556 17.24 111.756 17.4933 112.743 17.76V35.88ZM117.74 27.64C117.74 25.8 118.007 24.1867 118.54 22.8C119.1 21.4133 119.834 20.2667 120.74 19.36C121.647 18.4267 122.687 17.7333 123.86 17.28C125.034 16.8 126.234 16.56 127.46 16.56C130.34 16.56 132.58 17.4533 134.18 19.24C135.807 21.0267 136.62 23.6933 136.62 27.24C136.62 27.5067 136.607 27.8133 136.58 28.16C136.58 28.48 136.567 28.7733 136.54 29.04H122.74C122.874 30.72 123.46 32.0267 124.5 32.96C125.567 33.8667 127.1 34.32 129.1 34.32C130.274 34.32 131.34 34.2133 132.3 34C133.287 33.7867 134.06 33.56 134.62 33.32L135.26 37.28C134.994 37.4133 134.62 37.56 134.14 37.72C133.687 37.8533 133.154 37.9733 132.54 38.08C131.954 38.2133 131.314 38.32 130.62 38.4C129.927 38.48 129.22 38.52 128.5 38.52C126.66 38.52 125.06 38.2533 123.7 37.72C122.34 37.16 121.22 36.4 120.34 35.44C119.46 34.4533 118.807 33.3067 118.38 32C117.954 30.6667 117.74 29.2133 117.74 27.64ZM131.78 25.48C131.78 24.8133 131.687 24.1867 131.5 23.6C131.314 22.9867 131.034 22.4667 130.66 22.04C130.314 21.5867 129.874 21.24 129.34 21C128.834 20.7333 128.22 20.6 127.5 20.6C126.754 20.6 126.1 20.7467 125.54 21.04C124.98 21.3067 124.5 21.6667 124.1 22.12C123.727 22.5733 123.434 23.0933 123.22 23.68C123.007 24.2667 122.86 24.8667 122.78 25.48H131.78ZM140.592 27.64C140.592 25.8 140.859 24.1867 141.392 22.8C141.952 21.4133 142.685 20.2667 143.592 19.36C144.499 18.4267 145.539 17.7333 146.712 17.28C147.885 16.8 149.085 16.56 150.312 16.56C153.192 16.56 155.432 17.4533 157.032 19.24C158.659 21.0267 159.472 23.6933 159.472 27.24C159.472 27.5067 159.459 27.8133 159.432 28.16C159.432 28.48 159.419 28.7733 159.392 29.04H145.592C145.725 30.72 146.312 32.0267 147.352 32.96C148.419 33.8667 149.952 34.32 151.952 34.32C153.125 34.32 154.192 34.2133 155.152 34C156.139 33.7867 156.912 33.56 157.472 33.32L158.112 37.28C157.845 37.4133 157.472 37.56 156.992 37.72C156.539 37.8533 156.005 37.9733 155.392 38.08C154.805 38.2133 154.165 38.32 153.472 38.4C152.779 38.48 152.072 38.52 151.352 38.52C149.512 38.52 147.912 38.2533 146.552 37.72C145.192 37.16 144.072 36.4 143.192 35.44C142.312 34.4533 141.659 33.3067 141.232 32C140.805 30.6667 140.592 29.2133 140.592 27.64ZM154.632 25.48C154.632 24.8133 154.539 24.1867 154.352 23.6C154.165 22.9867 153.885 22.4667 153.512 22.04C153.165 21.5867 152.725 21.24 152.192 21C151.685 20.7333 151.072 20.6 150.352 20.6C149.605 20.6 148.952 20.7467 148.392 21.04C147.832 21.3067 147.352 21.6667 146.952 22.12C146.579 22.5733 146.285 23.0933 146.072 23.68C145.859 24.2667 145.712 24.8667 145.632 25.48H154.632Z"
        fill="url(#paint0_linear_122_307)" />
    <path
        d="M176.08 25.24C175.467 24.6 174.813 23.92 174.12 23.2C173.427 22.4533 172.747 21.72 172.08 21C171.413 20.2533 170.787 19.5467 170.2 18.88C169.587 18.1867 169.067 17.5867 168.64 17.08H162.92C164.253 18.5733 165.667 20.12 167.16 21.72C168.627 23.32 170.107 24.88 171.6 26.4C170.8 27.0667 169.96 27.88 169.08 28.84C168.2 29.7733 167.347 30.7733 166.52 31.84C165.693 32.9067 164.92 33.9733 164.2 35.04C163.48 36.1067 162.88 37.0933 162.4 38H168C168.48 37.1733 169.04 36.3067 169.68 35.4C170.293 34.4933 170.96 33.6133 171.68 32.76C172.4 31.9067 173.133 31.1067 173.88 30.36C174.627 29.5867 175.36 28.9333 176.08 28.4V38H180.92V7.76L176.08 6.96V25.24Z"
        fill="#3484D9" />
    <defs>
        <linearGradient id="paint0_linear_122_307" x1="0" y1="23" x2="162" y2="23"
            gradientUnits="userSpaceOnUse">
            <stop stop-color="#00D2FF" />
            <stop offset="1" stop-color="#3A7BD5" />
        </linearGradient>
    </defs>
</svg>